<svg width="639" height="648" viewBox="0 0 639 648" fill="none" xmlns="http://www.w3.org/2000/svg">
<g opacity="0.1">
<mask id="mask0_1511_864" style="mask-type:alpha" maskUnits="userSpaceOnUse" x="-9" y="0" width="648" height="648">
<circle cx="315" cy="324" r="324" fill="#D9D9D9"/>
</mask>
<g mask="url(#mask0_1511_864)">
<path d="M227.658 409.786V411.655H216.938V409.786H227.658ZM223.297 405.221V416.607H221.31V405.221H223.297Z" fill="#E5E5E5"/>
<path d="M272.678 409.786V411.655H261.957V409.786H272.678ZM268.316 405.221V416.607H266.329V405.221H268.316Z" fill="#E5E5E5"/>
<path d="M272.678 364.767V366.636H261.957V364.767H272.678ZM268.316 360.201V371.588H266.329V360.201H268.316Z" fill="#E5E5E5"/>
<path d="M227.658 364.767V366.636H216.938V364.767H227.658ZM223.297 360.201V371.588H221.31V360.201H223.297Z" fill="#E5E5E5"/>
<path d="M317.698 229.706V231.575H306.978V229.706H317.698ZM313.337 225.141V236.527H311.35V225.141H313.337Z" fill="#E5E5E5"/>
<path d="M317.698 274.726V276.595H306.978V274.726H317.698ZM313.337 270.16V281.547H311.35V270.16H313.337Z" fill="#E5E5E5"/>
<path d="M317.698 319.747V321.616H306.978V319.747H317.698ZM313.337 315.182V326.568H311.35V315.182H313.337Z" fill="#E5E5E5"/>
<path d="M317.697 364.767V366.636H306.977V364.767H317.697ZM313.336 360.201V371.588H311.349V360.201H313.336Z" fill="#E5E5E5"/>
<path d="M317.698 409.786V411.655H306.978V409.786H317.698ZM313.337 405.221V416.607H311.35V405.221H313.337Z" fill="#E5E5E5"/>
<path d="M362.718 229.706V231.575H351.997V229.706H362.718ZM358.356 225.141V236.527H356.369V225.141H358.356Z" fill="#E5E5E5"/>
<path d="M362.718 274.726V276.595H351.997V274.726H362.718ZM358.356 270.16V281.547H356.369V270.16H358.356Z" fill="#E5E5E5"/>
<path d="M362.718 319.747V321.616H351.997V319.747H362.718ZM358.356 315.182V326.568H356.369V315.182H358.356Z" fill="#E5E5E5"/>
<path d="M272.678 319.747V321.616H261.957V319.747H272.678ZM268.316 315.182V326.568H266.329V315.182H268.316Z" fill="#E5E5E5"/>
<path d="M272.678 274.726V276.595H261.957V274.726H272.678ZM268.316 270.16V281.547H266.329V270.16H268.316Z" fill="#E5E5E5"/>
<path d="M227.658 274.726V276.595H216.938V274.726H227.658ZM223.297 270.16V281.547H221.31V270.16H223.297Z" fill="#E5E5E5"/>
<path d="M272.678 229.706V231.575H261.957V229.706H272.678ZM268.316 225.141V236.527H266.329V225.141H268.316Z" fill="#E5E5E5"/>
<path d="M227.658 229.706V231.575H216.938V229.706H227.658ZM223.297 225.141V236.527H221.31V225.141H223.297Z" fill="#E5E5E5"/>
<path d="M227.658 319.747V321.616H216.938V319.747H227.658ZM223.297 315.182V326.568H221.31V315.182H223.297Z" fill="#E5E5E5"/>
<path d="M362.718 364.767V366.636H351.997V364.767H362.718ZM358.356 360.201V371.588H356.369V360.201H358.356Z" fill="#E5E5E5"/>
<path d="M362.718 409.786V411.655H351.997V409.786H362.718ZM358.356 405.221V416.607H356.369V405.221H358.356Z" fill="#E5E5E5"/>
<path d="M407.737 229.706V231.575H397.017V229.706H407.737ZM403.376 225.141V236.527H401.389V225.141H403.376Z" fill="#E5E5E5"/>
<path d="M407.737 274.726V276.595H397.017V274.726H407.737ZM403.376 270.16V281.547H401.389V270.16H403.376Z" fill="#E5E5E5"/>
<path d="M407.738 319.747V321.616H397.018V319.747H407.738ZM403.377 315.182V326.568H401.39V315.182H403.377Z" fill="#E5E5E5"/>
<path d="M407.738 364.767V366.636H397.018V364.767H407.738ZM403.377 360.201V371.588H401.39V360.201H403.377Z" fill="#E5E5E5"/>
<path d="M407.738 409.786V411.655H397.018V409.786H407.738ZM403.377 405.221V416.607H401.39V405.221H403.377Z" fill="#E5E5E5"/>
<path d="M227.658 193.688V195.558H216.938V193.688H227.658ZM223.297 189.123V200.51H221.31V189.123H223.297Z" fill="#E5E5E5"/>
<path d="M272.678 193.688V195.558H261.957V193.688H272.678ZM268.316 189.123V200.51H266.329V189.123H268.316Z" fill="#E5E5E5"/>
<path d="M272.678 148.671V150.54H261.957V148.671H272.678ZM268.316 144.105V155.492H266.329V144.105H268.316Z" fill="#E5E5E5"/>
<path d="M227.658 148.671V150.54H216.938V148.671H227.658ZM223.297 144.105V155.492H221.31V144.105H223.297Z" fill="#E5E5E5"/>
<path d="M317.698 13.6104V15.4795H306.978V13.6104H317.698ZM313.337 9.04492V20.4316H311.35V9.04492H313.337Z" fill="#E5E5E5"/>
<path d="M317.698 58.6299V60.499H306.978V58.6299H317.698ZM313.337 54.0645V65.4512H311.35V54.0645H313.337Z" fill="#E5E5E5"/>
<path d="M317.698 103.649V105.519H306.978V103.649H317.698ZM313.337 99.084V110.471H311.35V99.084H313.337Z" fill="#E5E5E5"/>
<path d="M317.697 148.671V150.54H306.977V148.671H317.697ZM313.336 144.105V155.492H311.349V144.105H313.336Z" fill="#E5E5E5"/>
<path d="M317.698 193.688V195.558H306.978V193.688H317.698ZM313.337 189.123V200.51H311.35V189.123H313.337Z" fill="#E5E5E5"/>
<path d="M362.718 13.6104V15.4795H351.997V13.6104H362.718ZM358.356 9.04492V20.4316H356.369V9.04492H358.356Z" fill="#E5E5E5"/>
<path d="M362.718 58.6299V60.499H351.997V58.6299H362.718ZM358.356 54.0645V65.4512H356.369V54.0645H358.356Z" fill="#E5E5E5"/>
<path d="M362.718 103.649V105.519H351.997V103.649H362.718ZM358.356 99.084V110.471H356.369V99.084H358.356Z" fill="#E5E5E5"/>
<path d="M272.678 103.649V105.519H261.957V103.649H272.678ZM268.316 99.084V110.471H266.329V99.084H268.316Z" fill="#E5E5E5"/>
<path d="M272.678 58.6299V60.499H261.957V58.6299H272.678ZM268.316 54.0645V65.4512H266.329V54.0645H268.316Z" fill="#E5E5E5"/>
<path d="M227.658 58.6299V60.499H216.938V58.6299H227.658ZM223.297 54.0645V65.4512H221.31V54.0645H223.297Z" fill="#E5E5E5"/>
<path d="M272.678 13.6104V15.4795H261.957V13.6104H272.678ZM268.316 9.04492V20.4316H266.329V9.04492H268.316Z" fill="#E5E5E5"/>
<path d="M227.658 13.6104V15.4795H216.938V13.6104H227.658ZM223.297 9.04492V20.4316H221.31V9.04492H223.297Z" fill="#E5E5E5"/>
<path d="M227.658 103.649V105.519H216.938V103.649H227.658ZM223.297 99.084V110.471H221.31V99.084H223.297Z" fill="#E5E5E5"/>
<path d="M362.718 148.671V150.54H351.997V148.671H362.718ZM358.356 144.105V155.492H356.369V144.105H358.356Z" fill="#E5E5E5"/>
<path d="M362.718 193.688V195.558H351.997V193.688H362.718ZM358.356 189.123V200.51H356.369V189.123H358.356Z" fill="#E5E5E5"/>
<path d="M407.737 13.6104V15.4795H397.017V13.6104H407.737ZM403.376 9.04492V20.4316H401.389V9.04492H403.376Z" fill="#E5E5E5"/>
<path d="M407.737 58.6299V60.499H397.017V58.6299H407.737ZM403.376 54.0645V65.4512H401.389V54.0645H403.376Z" fill="#E5E5E5"/>
<path d="M407.738 103.649V105.519H397.018V103.649H407.738ZM403.377 99.084V110.471H401.39V99.084H403.377Z" fill="#E5E5E5"/>
<path d="M407.738 148.671V150.54H397.018V148.671H407.738ZM403.377 144.105V155.492H401.39V144.105H403.377Z" fill="#E5E5E5"/>
<path d="M407.738 193.688V195.558H397.018V193.688H407.738ZM403.377 189.123V200.51H401.39V189.123H403.377Z" fill="#E5E5E5"/>
<path d="M227.658 625.88V627.749H216.938V625.88H227.658ZM223.297 621.314V632.701H221.31V621.314H223.297Z" fill="#E5E5E5"/>
<path d="M272.678 625.88V627.749H261.957V625.88H272.678ZM268.316 621.314V632.701H266.329V621.314H268.316Z" fill="#E5E5E5"/>
<path d="M272.678 580.862V582.731H261.957V580.862H272.678ZM268.316 576.297V587.683H266.329V576.297H268.316Z" fill="#E5E5E5"/>
<path d="M227.658 580.862V582.731H216.938V580.862H227.658ZM223.297 576.297V587.683H221.31V576.297H223.297Z" fill="#E5E5E5"/>
<path d="M317.698 445.802V447.671H306.978V445.802H317.698ZM313.337 441.236V452.623H311.35V441.236H313.337Z" fill="#E5E5E5"/>
<path d="M317.698 490.821V492.69H306.978V490.821H317.698ZM313.337 486.256V497.642H311.35V486.256H313.337Z" fill="#E5E5E5"/>
<path d="M317.698 535.841V537.71H306.978V535.841H317.698ZM313.337 531.275V542.662H311.35V531.275H313.337Z" fill="#E5E5E5"/>
<path d="M317.698 580.862V582.731H306.978V580.862H317.698ZM313.337 576.297V587.683H311.35V576.297H313.337Z" fill="#E5E5E5"/>
<path d="M317.698 625.88V627.749H306.978V625.88H317.698ZM313.337 621.314V632.701H311.35V621.314H313.337Z" fill="#E5E5E5"/>
<path d="M362.718 445.802V447.671H351.997V445.802H362.718ZM358.356 441.236V452.623H356.369V441.236H358.356Z" fill="#E5E5E5"/>
<path d="M362.718 490.821V492.69H351.997V490.821H362.718ZM358.356 486.256V497.642H356.369V486.256H358.356Z" fill="#E5E5E5"/>
<path d="M362.718 535.841V537.71H351.997V535.841H362.718ZM358.356 531.275V542.662H356.369V531.275H358.356Z" fill="#E5E5E5"/>
<path d="M272.678 535.841V537.71H261.957V535.841H272.678ZM268.316 531.275V542.662H266.329V531.275H268.316Z" fill="#E5E5E5"/>
<path d="M272.678 490.821V492.69H261.957V490.821H272.678ZM268.316 486.256V497.642H266.329V486.256H268.316Z" fill="#E5E5E5"/>
<path d="M227.658 490.821V492.69H216.938V490.821H227.658ZM223.297 486.256V497.642H221.31V486.256H223.297Z" fill="#E5E5E5"/>
<path d="M272.678 445.802V447.671H261.957V445.802H272.678ZM268.316 441.236V452.623H266.329V441.236H268.316Z" fill="#E5E5E5"/>
<path d="M227.658 445.802V447.671H216.938V445.802H227.658ZM223.297 441.236V452.623H221.31V441.236H223.297Z" fill="#E5E5E5"/>
<path d="M227.658 535.841V537.71H216.938V535.841H227.658ZM223.297 531.275V542.662H221.31V531.275H223.297Z" fill="#E5E5E5"/>
<path d="M362.718 580.862V582.731H351.997V580.862H362.718ZM358.356 576.297V587.683H356.369V576.297H358.356Z" fill="#E5E5E5"/>
<path d="M362.718 625.88V627.749H351.997V625.88H362.718ZM358.356 621.314V632.701H356.369V621.314H358.356Z" fill="#E5E5E5"/>
<path d="M407.737 445.802V447.671H397.017V445.802H407.737ZM403.376 441.236V452.623H401.389V441.236H403.376Z" fill="#E5E5E5"/>
<path d="M407.738 490.821V492.69H397.018V490.821H407.738ZM403.377 486.256V497.642H401.39V486.256H403.377Z" fill="#E5E5E5"/>
<path d="M407.738 535.841V537.71H397.018V535.841H407.738ZM403.377 531.275V542.662H401.39V531.275H403.377Z" fill="#E5E5E5"/>
<path d="M407.738 580.862V582.731H397.018V580.862H407.738ZM403.377 576.297V587.683H401.39V576.297H403.377Z" fill="#E5E5E5"/>
<path d="M407.738 625.88V627.749H397.018V625.88H407.738ZM403.377 621.314V632.701H401.39V621.314H403.377Z" fill="#E5E5E5"/>
<path d="M2.55859 193.688V195.558H-8.16211V193.688H2.55859ZM-1.80273 189.123V200.51H-3.79004V189.123H-1.80273Z" fill="#E5E5E5"/>
<path d="M47.5781 193.688V195.558H36.8574V193.688H47.5781ZM43.2168 189.123V200.51H41.2295V189.123H43.2168Z" fill="#E5E5E5"/>
<path d="M47.5781 148.671V150.54H36.8574V148.671H47.5781ZM43.2168 144.105V155.492H41.2295V144.105H43.2168Z" fill="#E5E5E5"/>
<path d="M2.55859 148.671V150.54H-8.16211V148.671H2.55859ZM-1.80273 144.105V155.492H-3.79004V144.105H-1.80273Z" fill="#E5E5E5"/>
<path d="M92.5986 13.6104V15.4795H81.8779V13.6104H92.5986ZM88.2373 9.04492V20.4316H86.25V9.04492H88.2373Z" fill="#E5E5E5"/>
<path d="M92.5986 58.6299V60.499H81.8779V58.6299H92.5986ZM88.2373 54.0645V65.4512H86.25V54.0645H88.2373Z" fill="#E5E5E5"/>
<path d="M92.5986 103.649V105.519H81.8779V103.649H92.5986ZM88.2373 99.084V110.471H86.25V99.084H88.2373Z" fill="#E5E5E5"/>
<path d="M92.5977 148.671V150.54H81.877V148.671H92.5977ZM88.2363 144.105V155.492H86.249V144.105H88.2363Z" fill="#E5E5E5"/>
<path d="M92.5986 193.688V195.558H81.8779V193.688H92.5986ZM88.2373 189.123V200.51H86.25V189.123H88.2373Z" fill="#E5E5E5"/>
<path d="M137.618 13.6104V15.4795H126.897V13.6104H137.618ZM133.257 9.04492V20.4316H131.27V9.04492H133.257Z" fill="#E5E5E5"/>
<path d="M137.618 58.6299V60.499H126.897V58.6299H137.618ZM133.257 54.0645V65.4512H131.27V54.0645H133.257Z" fill="#E5E5E5"/>
<path d="M137.618 103.649V105.519H126.897V103.649H137.618ZM133.257 99.084V110.471H131.27V99.084H133.257Z" fill="#E5E5E5"/>
<path d="M47.5781 103.649V105.519H36.8574V103.649H47.5781ZM43.2168 99.084V110.471H41.2295V99.084H43.2168Z" fill="#E5E5E5"/>
<path d="M47.5781 58.6299V60.499H36.8574V58.6299H47.5781ZM43.2168 54.0645V65.4512H41.2295V54.0645H43.2168Z" fill="#E5E5E5"/>
<path d="M2.55859 58.6299V60.499H-8.16211V58.6299H2.55859ZM-1.80273 54.0645V65.4512H-3.79004V54.0645H-1.80273Z" fill="#E5E5E5"/>
<path d="M47.5781 13.6104V15.4795H36.8574V13.6104H47.5781ZM43.2168 9.04492V20.4316H41.2295V9.04492H43.2168Z" fill="#E5E5E5"/>
<path d="M2.55859 13.6104V15.4795H-8.16211V13.6104H2.55859ZM-1.80273 9.04492V20.4316H-3.79004V9.04492H-1.80273Z" fill="#E5E5E5"/>
<path d="M2.55859 103.649V105.519H-8.16211V103.649H2.55859ZM-1.80273 99.084V110.471H-3.79004V99.084H-1.80273Z" fill="#E5E5E5"/>
<path d="M137.618 148.671V150.54H126.897V148.671H137.618ZM133.257 144.105V155.492H131.27V144.105H133.257Z" fill="#E5E5E5"/>
<path d="M137.618 193.688V195.558H126.897V193.688H137.618ZM133.257 189.123V200.51H131.27V189.123H133.257Z" fill="#E5E5E5"/>
<path d="M182.638 13.6104V15.4795H171.917V13.6104H182.638ZM178.276 9.04492V20.4316H176.289V9.04492H178.276Z" fill="#E5E5E5"/>
<path d="M182.639 58.6299V60.499H171.918V58.6299H182.639ZM178.277 54.0645V65.4512H176.29V54.0645H178.277Z" fill="#E5E5E5"/>
<path d="M182.639 103.649V105.519H171.918V103.649H182.639ZM178.277 99.084V110.471H176.29V99.084H178.277Z" fill="#E5E5E5"/>
<path d="M182.639 148.671V150.54H171.918V148.671H182.639ZM178.277 144.105V155.492H176.29V144.105H178.277Z" fill="#E5E5E5"/>
<path d="M182.639 193.688V195.558H171.918V193.688H182.639ZM178.277 189.123V200.51H176.29V189.123H178.277Z" fill="#E5E5E5"/>
<path d="M2.55859 409.786V411.655H-8.16211V409.786H2.55859ZM-1.80273 405.221V416.607H-3.79004V405.221H-1.80273Z" fill="#E5E5E5"/>
<path d="M47.5781 409.786V411.655H36.8574V409.786H47.5781ZM43.2168 405.221V416.607H41.2295V405.221H43.2168Z" fill="#E5E5E5"/>
<path d="M47.5781 364.767V366.636H36.8574V364.767H47.5781ZM43.2168 360.201V371.588H41.2295V360.201H43.2168Z" fill="#E5E5E5"/>
<path d="M2.55859 364.767V366.636H-8.16211V364.767H2.55859ZM-1.80273 360.201V371.588H-3.79004V360.201H-1.80273Z" fill="#E5E5E5"/>
<path d="M92.5986 229.706V231.575H81.8779V229.706H92.5986ZM88.2373 225.141V236.527H86.25V225.141H88.2373Z" fill="#E5E5E5"/>
<path d="M92.5986 274.726V276.595H81.8779V274.726H92.5986ZM88.2373 270.16V281.547H86.25V270.16H88.2373Z" fill="#E5E5E5"/>
<path d="M92.5986 319.747V321.616H81.8779V319.747H92.5986ZM88.2373 315.182V326.568H86.25V315.182H88.2373Z" fill="#E5E5E5"/>
<path d="M92.5977 364.767V366.636H81.877V364.767H92.5977ZM88.2363 360.201V371.588H86.249V360.201H88.2363Z" fill="#E5E5E5"/>
<path d="M92.5986 409.786V411.655H81.8779V409.786H92.5986ZM88.2373 405.221V416.607H86.25V405.221H88.2373Z" fill="#E5E5E5"/>
<path d="M137.618 229.706V231.575H126.897V229.706H137.618ZM133.257 225.141V236.527H131.27V225.141H133.257Z" fill="#E5E5E5"/>
<path d="M137.618 274.726V276.595H126.897V274.726H137.618ZM133.257 270.16V281.547H131.27V270.16H133.257Z" fill="#E5E5E5"/>
<path d="M137.618 319.747V321.616H126.897V319.747H137.618ZM133.257 315.182V326.568H131.27V315.182H133.257Z" fill="#E5E5E5"/>
<path d="M47.5781 319.747V321.616H36.8574V319.747H47.5781ZM43.2168 315.182V326.568H41.2295V315.182H43.2168Z" fill="#E5E5E5"/>
<path d="M47.5781 274.726V276.595H36.8574V274.726H47.5781ZM43.2168 270.16V281.547H41.2295V270.16H43.2168Z" fill="#E5E5E5"/>
<path d="M2.55859 274.726V276.595H-8.16211V274.726H2.55859ZM-1.80273 270.16V281.547H-3.79004V270.16H-1.80273Z" fill="#E5E5E5"/>
<path d="M47.5781 229.706V231.575H36.8574V229.706H47.5781ZM43.2168 225.141V236.527H41.2295V225.141H43.2168Z" fill="#E5E5E5"/>
<path d="M2.55859 229.706V231.575H-8.16211V229.706H2.55859ZM-1.80273 225.141V236.527H-3.79004V225.141H-1.80273Z" fill="#E5E5E5"/>
<path d="M2.55859 319.747V321.616H-8.16211V319.747H2.55859ZM-1.80273 315.182V326.568H-3.79004V315.182H-1.80273Z" fill="#E5E5E5"/>
<path d="M137.618 364.767V366.636H126.897V364.767H137.618ZM133.257 360.201V371.588H131.27V360.201H133.257Z" fill="#E5E5E5"/>
<path d="M137.618 409.786V411.655H126.897V409.786H137.618ZM133.257 405.221V416.607H131.27V405.221H133.257Z" fill="#E5E5E5"/>
<path d="M182.638 229.706V231.575H171.917V229.706H182.638ZM178.276 225.141V236.527H176.289V225.141H178.276Z" fill="#E5E5E5"/>
<path d="M182.639 274.726V276.595H171.918V274.726H182.639ZM178.277 270.16V281.547H176.29V270.16H178.277Z" fill="#E5E5E5"/>
<path d="M182.639 319.747V321.616H171.918V319.747H182.639ZM178.277 315.182V326.568H176.29V315.182H178.277Z" fill="#E5E5E5"/>
<path d="M182.639 364.767V366.636H171.918V364.767H182.639ZM178.277 360.201V371.588H176.29V360.201H178.277Z" fill="#E5E5E5"/>
<path d="M182.639 409.786V411.655H171.918V409.786H182.639ZM178.277 405.221V416.607H176.29V405.221H178.277Z" fill="#E5E5E5"/>
<path d="M2.55859 625.88V627.749H-8.16211V625.88H2.55859ZM-1.80273 621.314V632.701H-3.79004V621.314H-1.80273Z" fill="#E5E5E5"/>
<path d="M47.5781 625.88V627.749H36.8574V625.88H47.5781ZM43.2168 621.314V632.701H41.2295V621.314H43.2168Z" fill="#E5E5E5"/>
<path d="M47.5781 580.862V582.731H36.8574V580.862H47.5781ZM43.2168 576.297V587.683H41.2295V576.297H43.2168Z" fill="#E5E5E5"/>
<path d="M2.55859 580.862V582.731H-8.16211V580.862H2.55859ZM-1.80273 576.297V587.683H-3.79004V576.297H-1.80273Z" fill="#E5E5E5"/>
<path d="M92.5986 445.802V447.671H81.8779V445.802H92.5986ZM88.2373 441.236V452.623H86.25V441.236H88.2373Z" fill="#E5E5E5"/>
<path d="M92.5986 490.821V492.69H81.8779V490.821H92.5986ZM88.2373 486.256V497.642H86.25V486.256H88.2373Z" fill="#E5E5E5"/>
<path d="M92.5986 535.841V537.71H81.8779V535.841H92.5986ZM88.2373 531.275V542.662H86.25V531.275H88.2373Z" fill="#E5E5E5"/>
<path d="M92.5977 580.862V582.731H81.877V580.862H92.5977ZM88.2363 576.297V587.683H86.249V576.297H88.2363Z" fill="#E5E5E5"/>
<path d="M92.5986 625.88V627.749H81.8779V625.88H92.5986ZM88.2373 621.314V632.701H86.25V621.314H88.2373Z" fill="#E5E5E5"/>
<path d="M137.618 445.802V447.671H126.897V445.802H137.618ZM133.257 441.236V452.623H131.27V441.236H133.257Z" fill="#E5E5E5"/>
<path d="M137.618 490.821V492.69H126.897V490.821H137.618ZM133.257 486.256V497.642H131.27V486.256H133.257Z" fill="#E5E5E5"/>
<path d="M137.618 535.841V537.71H126.897V535.841H137.618ZM133.257 531.275V542.662H131.27V531.275H133.257Z" fill="#E5E5E5"/>
<path d="M47.5781 535.841V537.71H36.8574V535.841H47.5781ZM43.2168 531.275V542.662H41.2295V531.275H43.2168Z" fill="#E5E5E5"/>
<path d="M47.5781 490.821V492.69H36.8574V490.821H47.5781ZM43.2168 486.256V497.642H41.2295V486.256H43.2168Z" fill="#E5E5E5"/>
<path d="M2.55859 490.821V492.69H-8.16211V490.821H2.55859ZM-1.80273 486.256V497.642H-3.79004V486.256H-1.80273Z" fill="#E5E5E5"/>
<path d="M47.5781 445.802V447.671H36.8574V445.802H47.5781ZM43.2168 441.236V452.623H41.2295V441.236H43.2168Z" fill="#E5E5E5"/>
<path d="M2.55859 445.802V447.671H-8.16211V445.802H2.55859ZM-1.80273 441.236V452.623H-3.79004V441.236H-1.80273Z" fill="#E5E5E5"/>
<path d="M2.55859 535.841V537.71H-8.16211V535.841H2.55859ZM-1.80273 531.275V542.662H-3.79004V531.275H-1.80273Z" fill="#E5E5E5"/>
<path d="M137.618 580.862V582.731H126.897V580.862H137.618ZM133.257 576.297V587.683H131.27V576.297H133.257Z" fill="#E5E5E5"/>
<path d="M137.618 625.88V627.749H126.897V625.88H137.618ZM133.257 621.314V632.701H131.27V621.314H133.257Z" fill="#E5E5E5"/>
<path d="M182.638 445.802V447.671H171.917V445.802H182.638ZM178.276 441.236V452.623H176.289V441.236H178.276Z" fill="#E5E5E5"/>
<path d="M182.639 490.821V492.69H171.918V490.821H182.639ZM178.277 486.256V497.642H176.29V486.256H178.277Z" fill="#E5E5E5"/>
<path d="M182.639 535.841V537.71H171.918V535.841H182.639ZM178.277 531.275V542.662H176.29V531.275H178.277Z" fill="#E5E5E5"/>
<path d="M182.639 580.862V582.731H171.918V580.862H182.639ZM178.277 576.297V587.683H176.29V576.297H178.277Z" fill="#E5E5E5"/>
<path d="M182.639 625.88V627.749H171.918V625.88H182.639ZM178.277 621.314V632.701H176.29V621.314H178.277Z" fill="#E5E5E5"/>
<path d="M452.758 193.688V195.558H442.037V193.688H452.758ZM448.396 189.123V200.51H446.409V189.123H448.396Z" fill="#E5E5E5"/>
<path d="M497.777 193.688V195.558H487.057V193.688H497.777ZM493.416 189.123V200.51H491.429V189.123H493.416Z" fill="#E5E5E5"/>
<path d="M497.777 148.671V150.54H487.057V148.671H497.777ZM493.416 144.105V155.492H491.429V144.105H493.416Z" fill="#E5E5E5"/>
<path d="M452.758 148.671V150.54H442.037V148.671H452.758ZM448.396 144.105V155.492H446.409V144.105H448.396Z" fill="#E5E5E5"/>
<path d="M542.798 13.6104V15.4795H532.077V13.6104H542.798ZM538.437 9.04492V20.4316H536.449V9.04492H538.437Z" fill="#E5E5E5"/>
<path d="M542.797 58.6299V60.499H532.076V58.6299H542.797ZM538.436 54.0645V65.4512H536.448V54.0645H538.436Z" fill="#E5E5E5"/>
<path d="M542.797 103.649V105.519H532.076V103.649H542.797ZM538.436 99.084V110.471H536.448V99.084H538.436Z" fill="#E5E5E5"/>
<path d="M542.797 148.671V150.54H532.076V148.671H542.797ZM538.436 144.105V155.492H536.448V144.105H538.436Z" fill="#E5E5E5"/>
<path d="M542.797 193.688V195.558H532.076V193.688H542.797ZM538.436 189.123V200.51H536.448V189.123H538.436Z" fill="#E5E5E5"/>
<path d="M587.817 13.6104V15.4795H577.097V13.6104H587.817ZM583.456 9.04492V20.4316H581.469V9.04492H583.456Z" fill="#E5E5E5"/>
<path d="M587.817 58.6299V60.499H577.097V58.6299H587.817ZM583.456 54.0645V65.4512H581.469V54.0645H583.456Z" fill="#E5E5E5"/>
<path d="M587.817 103.649V105.519H577.097V103.649H587.817ZM583.456 99.084V110.471H581.469V99.084H583.456Z" fill="#E5E5E5"/>
<path d="M497.777 103.649V105.519H487.057V103.649H497.777ZM493.416 99.084V110.471H491.429V99.084H493.416Z" fill="#E5E5E5"/>
<path d="M497.777 58.6299V60.499H487.057V58.6299H497.777ZM493.416 54.0645V65.4512H491.429V54.0645H493.416Z" fill="#E5E5E5"/>
<path d="M452.758 58.6299V60.499H442.037V58.6299H452.758ZM448.396 54.0645V65.4512H446.409V54.0645H448.396Z" fill="#E5E5E5"/>
<path d="M497.777 13.6104V15.4795H487.057V13.6104H497.777ZM493.416 9.04492V20.4316H491.429V9.04492H493.416Z" fill="#E5E5E5"/>
<path d="M452.758 13.6104V15.4795H442.037V13.6104H452.758ZM448.396 9.04492V20.4316H446.409V9.04492H448.396Z" fill="#E5E5E5"/>
<path d="M452.758 103.649V105.519H442.037V103.649H452.758ZM448.396 99.084V110.471H446.409V99.084H448.396Z" fill="#E5E5E5"/>
<path d="M587.817 148.671V150.54H577.097V148.671H587.817ZM583.456 144.105V155.492H581.469V144.105H583.456Z" fill="#E5E5E5"/>
<path d="M587.817 193.688V195.558H577.097V193.688H587.817ZM583.456 189.123V200.51H581.469V189.123H583.456Z" fill="#E5E5E5"/>
<path d="M632.837 13.6104V15.4795H622.116V13.6104H632.837ZM628.476 9.04492V20.4316H626.488V9.04492H628.476Z" fill="#FF7152"/>
<path d="M632.838 58.6299V60.499H622.117V58.6299H632.838ZM628.477 54.0645V65.4512H626.489V54.0645H628.477Z" fill="#E5E5E5"/>
<path d="M632.838 103.649V105.519H622.117V103.649H632.838ZM628.477 99.084V110.471H626.489V99.084H628.477Z" fill="#E5E5E5"/>
<path d="M632.838 148.671V150.54H622.117V148.671H632.838ZM628.477 144.105V155.492H626.489V144.105H628.477Z" fill="#E5E5E5"/>
<path d="M632.838 193.688V195.558H622.117V193.688H632.838ZM628.477 189.123V200.51H626.489V189.123H628.477Z" fill="#E5E5E5"/>
<path d="M452.758 409.786V411.655H442.037V409.786H452.758ZM448.396 405.221V416.607H446.409V405.221H448.396Z" fill="#E5E5E5"/>
<path d="M497.777 409.786V411.655H487.057V409.786H497.777ZM493.416 405.221V416.607H491.429V405.221H493.416Z" fill="#E5E5E5"/>
<path d="M497.777 364.767V366.636H487.057V364.767H497.777ZM493.416 360.201V371.588H491.429V360.201H493.416Z" fill="#E5E5E5"/>
<path d="M452.758 364.767V366.636H442.037V364.767H452.758ZM448.396 360.201V371.588H446.409V360.201H448.396Z" fill="#E5E5E5"/>
<path d="M542.798 229.706V231.575H532.077V229.706H542.798ZM538.437 225.141V236.527H536.449V225.141H538.437Z" fill="#E5E5E5"/>
<path d="M542.798 274.726V276.595H532.077V274.726H542.798ZM538.437 270.16V281.547H536.449V270.16H538.437Z" fill="#E5E5E5"/>
<path d="M542.798 319.747V321.616H532.077V319.747H542.798ZM538.437 315.182V326.568H536.449V315.182H538.437Z" fill="#E5E5E5"/>
<path d="M542.797 364.767V366.636H532.076V364.767H542.797ZM538.436 360.201V371.588H536.448V360.201H538.436Z" fill="#E5E5E5"/>
<path d="M542.798 409.786V411.655H532.077V409.786H542.798ZM538.437 405.221V416.607H536.449V405.221H538.437Z" fill="#E5E5E5"/>
<path d="M587.817 229.706V231.575H577.097V229.706H587.817ZM583.456 225.141V236.527H581.469V225.141H583.456Z" fill="#E5E5E5"/>
<path d="M587.817 274.726V276.595H577.097V274.726H587.817ZM583.456 270.16V281.547H581.469V270.16H583.456Z" fill="#6750A4"/>
<path d="M587.817 319.747V321.616H577.097V319.747H587.817ZM583.456 315.182V326.568H581.469V315.182H583.456Z" fill="#E5E5E5"/>
<path d="M497.777 319.747V321.616H487.057V319.747H497.777ZM493.416 315.182V326.568H491.429V315.182H493.416Z" fill="#E5E5E5"/>
<path d="M497.777 274.726V276.595H487.057V274.726H497.777ZM493.416 270.16V281.547H491.429V270.16H493.416Z" fill="#E5E5E5"/>
<path d="M452.758 274.726V276.595H442.037V274.726H452.758ZM448.396 270.16V281.547H446.409V270.16H448.396Z" fill="#E5E5E5"/>
<path d="M497.777 229.706V231.575H487.057V229.706H497.777ZM493.416 225.141V236.527H491.429V225.141H493.416Z" fill="#E5E5E5"/>
<path d="M452.758 229.706V231.575H442.037V229.706H452.758ZM448.396 225.141V236.527H446.409V225.141H448.396Z" fill="#E5E5E5"/>
<path d="M452.758 319.747V321.616H442.037V319.747H452.758ZM448.396 315.182V326.568H446.409V315.182H448.396Z" fill="#E5E5E5"/>
<path d="M587.817 364.767V366.636H577.097V364.767H587.817ZM583.456 360.201V371.588H581.469V360.201H583.456Z" fill="#E5E5E5"/>
<path d="M587.817 409.786V411.655H577.097V409.786H587.817ZM583.456 405.221V416.607H581.469V405.221H583.456Z" fill="#E5E5E5"/>
<path d="M632.837 229.706V231.575H622.116V229.706H632.837ZM628.476 225.141V236.527H626.488V225.141H628.476Z" fill="#E5E5E5"/>
<path d="M632.838 274.726V276.595H622.117V274.726H632.838ZM628.477 270.16V281.547H626.489V270.16H628.477Z" fill="#E5E5E5"/>
<path d="M632.838 319.747V321.616H622.117V319.747H632.838ZM628.477 315.182V326.568H626.489V315.182H628.477Z" fill="#E5E5E5"/>
<path d="M632.838 364.767V366.636H622.117V364.767H632.838ZM628.477 360.201V371.588H626.489V360.201H628.477Z" fill="#E5E5E5"/>
<path d="M632.838 409.786V411.655H622.117V409.786H632.838ZM628.477 405.221V416.607H626.489V405.221H628.477Z" fill="#E5E5E5"/>
<path d="M452.758 625.88V627.749H442.037V625.88H452.758ZM448.396 621.314V632.701H446.409V621.314H448.396Z" fill="#E5E5E5"/>
<path d="M497.777 625.88V627.749H487.057V625.88H497.777ZM493.416 621.314V632.701H491.429V621.314H493.416Z" fill="#E5E5E5"/>
<path d="M497.777 580.862V582.731H487.057V580.862H497.777ZM493.416 576.297V587.684H491.429V576.297H493.416Z" fill="#E5E5E5"/>
<path d="M452.758 580.862V582.731H442.037V580.862H452.758ZM448.396 576.297V587.684H446.409V576.297H448.396Z" fill="#E5E5E5"/>
<path d="M542.798 445.802V447.671H532.077V445.802H542.798ZM538.437 441.236V452.623H536.449V441.236H538.437Z" fill="#E5E5E5"/>
<path d="M542.797 490.821V492.69H532.076V490.821H542.797ZM538.436 486.256V497.643H536.448V486.256H538.436Z" fill="#E5E5E5"/>
<path d="M542.797 535.841V537.71H532.076V535.841H542.797ZM538.436 531.275V542.662H536.448V531.275H538.436Z" fill="#E5E5E5"/>
<path d="M542.798 580.862V582.731H532.077V580.862H542.798ZM538.437 576.297V587.684H536.449V576.297H538.437Z" fill="#E5E5E5"/>
<path d="M542.797 625.88V627.749H532.076V625.88H542.797ZM538.436 621.314V632.701H536.448V621.314H538.436Z" fill="#E5E5E5"/>
<path d="M587.817 445.802V447.671H577.097V445.802H587.817ZM583.456 441.236V452.623H581.469V441.236H583.456Z" fill="#E5E5E5"/>
<path d="M587.817 490.821V492.69H577.097V490.821H587.817ZM583.456 486.256V497.643H581.469V486.256H583.456Z" fill="#E5E5E5"/>
<path d="M587.817 535.841V537.71H577.097V535.841H587.817ZM583.456 531.275V542.662H581.469V531.275H583.456Z" fill="#E5E5E5"/>
<path d="M497.777 535.841V537.71H487.057V535.841H497.777ZM493.416 531.275V542.662H491.429V531.275H493.416Z" fill="#E5E5E5"/>
<path d="M497.777 490.821V492.69H487.057V490.821H497.777ZM493.416 486.256V497.643H491.429V486.256H493.416Z" fill="#E5E5E5"/>
<path d="M452.758 490.821V492.69H442.037V490.821H452.758ZM448.396 486.256V497.643H446.409V486.256H448.396Z" fill="#E5E5E5"/>
<path d="M497.777 445.802V447.671H487.057V445.802H497.777ZM493.416 441.236V452.623H491.429V441.236H493.416Z" fill="#E5E5E5"/>
<path d="M452.758 445.802V447.671H442.037V445.802H452.758ZM448.396 441.236V452.623H446.409V441.236H448.396Z" fill="#E5E5E5"/>
<path d="M452.758 535.841V537.71H442.037V535.841H452.758ZM448.396 531.275V542.662H446.409V531.275H448.396Z" fill="#E5E5E5"/>
<path d="M587.817 580.862V582.731H577.097V580.862H587.817ZM583.456 576.297V587.684H581.469V576.297H583.456Z" fill="#E5E5E5"/>
<path d="M587.817 625.88V627.749H577.097V625.88H587.817ZM583.456 621.314V632.701H581.469V621.314H583.456Z" fill="#E5E5E5"/>
<path d="M632.838 445.802V447.671H622.117V445.802H632.838ZM628.477 441.236V452.623H626.489V441.236H628.477Z" fill="#E5E5E5"/>
<path d="M632.838 490.821V492.69H622.117V490.821H632.838ZM628.477 486.256V497.643H626.489V486.256H628.477Z" fill="#E5E5E5"/>
<path d="M632.838 535.841V537.71H622.117V535.841H632.838ZM628.477 531.275V542.662H626.489V531.275H628.477Z" fill="#E5E5E5"/>
<path d="M632.838 580.862V582.731H622.117V580.862H632.838ZM628.477 576.297V587.684H626.489V576.297H628.477Z" fill="#E5E5E5"/>
<path d="M632.838 625.88V627.749H622.117V625.88H632.838ZM628.477 621.314V632.701H626.489V621.314H628.477Z" fill="#E5E5E5"/>
</g>
</g>
</svg>
