<svg width="32" height="32" viewBox="0 0 32 32" fill="none" xmlns="http://www.w3.org/2000/svg">
<g clip-path="url(#clip0_1716_427)">
<path d="M26.4718 19.7399C23.8067 16.7672 19.9899 15.0625 16 15.0625C15.0655 15.0625 14.1401 15.1798 13.2301 15.3619C13.2202 15.5754 13.1875 15.7852 13.1875 16C13.1875 17.0304 13.3036 18.0436 13.5191 19.0274C14.3394 18.8992 15.1678 18.8125 16 18.8125C21.2152 18.8125 25.9158 21.4038 28.843 25.3978C29.0069 25.1744 29.1717 24.9524 29.324 24.7204C28.7298 22.9081 27.7931 21.2126 26.4718 19.7399Z" fill="#957ED1"/>
<path d="M15.9999 20.6875C15.3474 20.6875 14.6977 20.7491 14.0527 20.8383C14.912 23.1858 16.3847 25.2901 18.384 26.9158C20.0794 28.2945 22.0566 29.203 24.148 29.672C25.4242 28.9084 26.5837 27.9759 27.5969 26.8983C25.0443 23.1496 20.7713 20.6875 15.9999 20.6875Z" fill="#957ED1"/>
<path d="M27.577 13.6399C24.9496 9.83823 20.6284 7.56848 16.0154 7.56348C14.7285 9.28166 13.8615 11.2872 13.459 13.415C14.2985 13.2802 15.1456 13.1875 16.0001 13.1875C20.5219 13.1875 24.8469 15.1193 27.8681 18.4875C28.7329 19.4519 29.4504 20.5026 30.0459 21.6078C30.0429 18.7646 29.217 16.0124 27.577 13.6399Z" fill="#957ED1"/>
<path d="M24.1476 2.32776C22.7742 2.63413 21.4356 3.10857 20.1791 3.84088C19.2394 4.38857 18.3939 5.0542 17.6201 5.7867C22.2327 6.25901 26.4496 8.71101 29.1192 12.5731C30.4362 14.4787 31.3489 16.5972 31.7361 18.8115C31.8997 17.8972 31.9997 16.9608 31.9997 16C31.9997 10.1911 28.8034 5.11326 24.1476 2.32776Z" fill="#957ED1"/>
<path d="M17.2012 28.3706C13.4585 25.3273 11.3125 20.8184 11.3125 15.9999C11.3125 10.3493 14.3484 5.06944 19.2355 2.22125C19.2869 2.19125 19.3417 2.17238 19.3933 2.14307C17.3707 2.46325 15.4313 3.19663 13.6956 4.38463C9.855 7.01132 7.5625 11.3536 7.5625 15.9999C7.5625 20.4952 9.63525 24.6133 13.2498 27.2976C15.0923 28.665 17.2007 29.5301 19.417 29.878C18.6435 29.4418 17.9014 28.9401 17.2012 28.3706Z" fill="white"/>
<path d="M5.6875 16C5.6875 10.7348 8.28575 5.81381 12.6373 2.83744C14.5388 1.53569 16.6513 0.648375 18.8548 0.270312C17.9269 0.1015 16.9758 0 16 0C7.21188 0 0 7.21187 0 16C0 24.7881 7.21188 32 16 32C16.9685 32 17.9126 31.8992 18.834 31.7329C16.431 31.3097 14.1413 30.295 12.1319 28.8027C8.09625 25.8062 5.6875 21.0198 5.6875 16Z" fill="white"/>
</g>
<defs>
<clipPath id="clip0_1716_427">
<rect width="32" height="32" fill="white"/>
</clipPath>
</defs>
</svg>
